<svg width="137" height="35" viewBox="0 0 137 35" fill="none" xmlns="http://www.w3.org/2000/svg">
<path d="M37.1184 10.2954L26.25 17.2116V11.8773C26.25 10.3995 24.6148 9.50234 23.3684 10.2954L12.5 17.2116V1.875C12.5 0.839453 11.6605 0 10.625 0H1.875C0.839453 0 0 0.839453 0 1.875V33.125C0 34.1605 0.839453 35 1.875 35H38.125C39.1605 35 40 34.1605 40 33.125V11.8773C40 10.3994 38.3648 9.50234 37.1184 10.2954Z" fill="#177CFF"/>
<path d="M55.18 21.78H59.78V24H52.38V10.04H55.18V21.78ZM66.4797 24.18C65.413 24.18 64.453 23.9467 63.5997 23.48C62.7464 23 62.073 22.3267 61.5797 21.46C61.0997 20.5933 60.8597 19.5933 60.8597 18.46C60.8597 17.3267 61.1064 16.3267 61.5997 15.46C62.1064 14.5933 62.793 13.9267 63.6597 13.46C64.5264 12.98 65.493 12.74 66.5597 12.74C67.6264 12.74 68.593 12.98 69.4597 13.46C70.3264 13.9267 71.0064 14.5933 71.4997 15.46C72.0064 16.3267 72.2597 17.3267 72.2597 18.46C72.2597 19.5933 71.9997 20.5933 71.4797 21.46C70.973 22.3267 70.2797 23 69.3997 23.48C68.533 23.9467 67.5597 24.18 66.4797 24.18ZM66.4797 21.74C66.9864 21.74 67.4597 21.62 67.8997 21.38C68.353 21.1267 68.713 20.7533 68.9797 20.26C69.2464 19.7667 69.3797 19.1667 69.3797 18.46C69.3797 17.4067 69.0997 16.6 68.5397 16.04C67.993 15.4667 67.3197 15.18 66.5197 15.18C65.7197 15.18 65.0464 15.4667 64.4997 16.04C63.9664 16.6 63.6997 17.4067 63.6997 18.46C63.6997 19.5133 63.9597 20.3267 64.4797 20.9C65.013 21.46 65.6797 21.74 66.4797 21.74ZM73.5936 18.46C73.5936 17.3133 73.8269 16.3133 74.2936 15.46C74.7603 14.5933 75.4069 13.9267 76.2336 13.46C77.0603 12.98 78.0069 12.74 79.0736 12.74C80.4469 12.74 81.5803 13.0867 82.4736 13.78C83.3803 14.46 83.9869 15.42 84.2936 16.66H81.2736C81.1136 16.18 80.8403 15.8067 80.4536 15.54C80.0803 15.26 79.6136 15.12 79.0536 15.12C78.2536 15.12 77.6203 15.4133 77.1536 16C76.6869 16.5733 76.4536 17.3933 76.4536 18.46C76.4536 19.5133 76.6869 20.3333 77.1536 20.92C77.6203 21.4933 78.2536 21.78 79.0536 21.78C80.1869 21.78 80.9269 21.2733 81.2736 20.26H84.2936C83.9869 21.46 83.3803 22.4133 82.4736 23.12C81.5669 23.8267 80.4336 24.18 79.0736 24.18C78.0069 24.18 77.0603 23.9467 76.2336 23.48C75.4069 23 74.7603 22.3333 74.2936 21.48C73.8269 20.6133 73.5936 19.6067 73.5936 18.46ZM85.6248 18.42C85.6248 17.3 85.8448 16.3067 86.2848 15.44C86.7382 14.5733 87.3448 13.9067 88.1048 13.44C88.8782 12.9733 89.7382 12.74 90.6848 12.74C91.5115 12.74 92.2315 12.9067 92.8448 13.24C93.4715 13.5733 93.9715 13.9933 94.3448 14.5V12.92H97.1648V24H94.3448V22.38C93.9848 22.9 93.4848 23.3333 92.8448 23.68C92.2182 24.0133 91.4915 24.18 90.6648 24.18C89.7315 24.18 88.8782 23.94 88.1048 23.46C87.3448 22.98 86.7382 22.3067 86.2848 21.44C85.8448 20.56 85.6248 19.5533 85.6248 18.42ZM94.3448 18.46C94.3448 17.78 94.2115 17.2 93.9448 16.72C93.6782 16.2267 93.3182 15.8533 92.8648 15.6C92.4115 15.3333 91.9248 15.2 91.4048 15.2C90.8848 15.2 90.4048 15.3267 89.9648 15.58C89.5248 15.8333 89.1648 16.2067 88.8848 16.7C88.6182 17.18 88.4848 17.7533 88.4848 18.42C88.4848 19.0867 88.6182 19.6733 88.8848 20.18C89.1648 20.6733 89.5248 21.0533 89.9648 21.32C90.4182 21.5867 90.8982 21.72 91.4048 21.72C91.9248 21.72 92.4115 21.5933 92.8648 21.34C93.3182 21.0733 93.6782 20.7 93.9448 20.22C94.2115 19.7267 94.3448 19.14 94.3448 18.46ZM110.08 14.36C110.08 15.1067 109.9 15.8067 109.54 16.46C109.193 17.1133 108.64 17.64 107.88 18.04C107.133 18.44 106.186 18.64 105.04 18.64H102.7V24H99.8995V10.04H105.04C106.12 10.04 107.04 10.2267 107.8 10.6C108.56 10.9733 109.126 11.4867 109.5 12.14C109.886 12.7933 110.08 13.5333 110.08 14.36ZM104.92 16.38C105.693 16.38 106.266 16.2067 106.64 15.86C107.013 15.5 107.2 15 107.2 14.36C107.2 13 106.44 12.32 104.92 12.32H102.7V16.38H104.92ZM111.347 18.42C111.347 17.3 111.567 16.3067 112.007 15.44C112.461 14.5733 113.068 13.9067 113.828 13.44C114.601 12.9733 115.461 12.74 116.408 12.74C117.234 12.74 117.954 12.9067 118.568 13.24C119.194 13.5733 119.694 13.9933 120.068 14.5V12.92H122.888V24H120.068V22.38C119.708 22.9 119.208 23.3333 118.568 23.68C117.941 24.0133 117.214 24.18 116.388 24.18C115.454 24.18 114.601 23.94 113.828 23.46C113.068 22.98 112.461 22.3067 112.007 21.44C111.567 20.56 111.347 19.5533 111.347 18.42ZM120.068 18.46C120.068 17.78 119.934 17.2 119.668 16.72C119.401 16.2267 119.041 15.8533 118.588 15.6C118.134 15.3333 117.648 15.2 117.128 15.2C116.608 15.2 116.128 15.3267 115.688 15.58C115.248 15.8333 114.888 16.2067 114.608 16.7C114.341 17.18 114.208 17.7533 114.208 18.42C114.208 19.0867 114.341 19.6733 114.608 20.18C114.888 20.6733 115.248 21.0533 115.688 21.32C116.141 21.5867 116.621 21.72 117.128 21.72C117.648 21.72 118.134 21.5933 118.588 21.34C119.041 21.0733 119.401 20.7 119.668 20.22C119.934 19.7267 120.068 19.14 120.068 18.46ZM136.222 12.92L129.362 29.24H126.382L128.782 23.72L124.342 12.92H127.482L130.342 20.66L133.242 12.92H136.222Z" fill="#177CFF"/>
</svg>
