<svg width="50" height="28" viewBox="0 0 50 28" fill="none" xmlns="http://www.w3.org/2000/svg">
<g clip-path="url(#clip0_1316_1730)">
<path d="M22.2028 20.5987H18.7692L20.9151 7.41046H24.3491L22.2028 20.5987ZM15.8806 7.41046L12.6072 16.4815L12.2198 14.5281L12.2202 14.5288L11.0648 8.59791C11.0648 8.59791 10.9251 7.41046 9.43606 7.41046H4.02444L3.96094 7.63377C3.96094 7.63377 5.61582 7.97808 7.55257 9.14119L10.5357 20.5991H14.1132L19.576 7.41046H15.8806ZM42.8876 20.5987H46.0404L43.2915 7.41011H40.5314C39.2568 7.41011 38.9463 8.39295 38.9463 8.39295L33.8254 20.5987H37.4047L38.1205 18.6398H42.4854L42.8876 20.5987ZM39.1093 15.9336L40.9134 10.9982L41.9284 15.9336H39.1093ZM34.0939 10.5819L34.5839 7.74983C34.5839 7.74983 33.0719 7.1748 31.4957 7.1748C29.7917 7.1748 25.7454 7.91952 25.7454 11.5408C25.7454 14.9479 30.4945 14.9903 30.4945 16.7799C30.4945 18.5695 26.2347 18.2489 24.8288 17.1203L24.3184 20.0816C24.3184 20.0816 25.8515 20.8263 28.194 20.8263C30.5372 20.8263 34.072 19.6131 34.072 16.3111C34.072 12.8821 29.2802 12.5628 29.2802 11.0719C29.2806 9.58075 32.6245 9.77231 34.0939 10.5819Z" fill="#2566AF"/>
<path d="M12.2202 14.5285L11.0648 8.59761C11.0648 8.59761 10.9251 7.41016 9.43606 7.41016H4.02444L3.96094 7.63346C3.96094 7.63346 6.56197 8.17251 9.05682 10.1922C11.4423 12.1226 12.2202 14.5285 12.2202 14.5285Z" fill="#E6A540"/>
</g>
<defs>
<clipPath id="clip0_1316_1730">
<rect width="50" height="28" fill="white"/>
</clipPath>
</defs>
</svg>
