<svg id="Calque_1" data-name="Calque 1" xmlns="http://www.w3.org/2000/svg" viewBox="0 0 122.7 52.59"><defs><style>.cls-1{fill:#177cff;}</style></defs><path class="cls-1" d="M90.13,165.29l-2.7-3.91h-3v3.91H81.21v-14h6.06a7.66,7.66,0,0,1,3.23.62,4.72,4.72,0,0,1,2.11,1.76,4.85,4.85,0,0,1,.74,2.7,4.71,4.71,0,0,1-.75,2.68,4.79,4.79,0,0,1-2.13,1.74l3.14,4.5Zm-.82-10.74a3.38,3.38,0,0,0-2.22-.63H84.45v4.88h2.64a3.38,3.38,0,0,0,2.22-.63,2.54,2.54,0,0,0,0-3.62Z" transform="translate(-81.21 -112.86)"/><path class="cls-1" d="M105.77,160.79H97.63a2.6,2.6,0,0,0,1,1.58,3.51,3.51,0,0,0,2,.58,4.27,4.27,0,0,0,1.49-.25,3.56,3.56,0,0,0,1.21-.79l1.66,1.8a5.57,5.57,0,0,1-4.44,1.74,7.1,7.1,0,0,1-3.22-.71,5.29,5.29,0,0,1-2.16-2,5.79,5.79,0,0,1,0-5.72,5.27,5.27,0,0,1,2.06-2,6.42,6.42,0,0,1,5.79,0,5.05,5.05,0,0,1,2,2,5.76,5.76,0,0,1,.73,2.95S105.81,160.27,105.77,160.79Zm-7.3-3.46a2.55,2.55,0,0,0-.88,1.63h5.3a2.58,2.58,0,0,0-.88-1.63,2.91,2.91,0,0,0-3.54,0Z" transform="translate(-81.21 -112.86)"/><path class="cls-1" d="M108.51,165.12a7,7,0,0,1-2-.83l1-2.25a6.34,6.34,0,0,0,1.74.75,7.06,7.06,0,0,0,2,.29c1.32,0,2-.32,2-1a.69.69,0,0,0-.54-.66,7.34,7.34,0,0,0-1.66-.34,18,18,0,0,1-2.18-.46,3.46,3.46,0,0,1-1.49-.92,2.63,2.63,0,0,1-.63-1.89,2.94,2.94,0,0,1,.59-1.8A3.89,3.89,0,0,1,109,154.8a7.48,7.48,0,0,1,2.67-.43,10.25,10.25,0,0,1,2.27.25,6.16,6.16,0,0,1,1.87.68l-1,2.23a6.12,6.12,0,0,0-3.1-.8,3.29,3.29,0,0,0-1.5.27.84.84,0,0,0-.5.73.7.7,0,0,0,.54.69,8.4,8.4,0,0,0,1.72.38,18.17,18.17,0,0,1,2.16.48,3.17,3.17,0,0,1,1.46.91,2.53,2.53,0,0,1,.62,1.84,2.81,2.81,0,0,1-.6,1.77,3.78,3.78,0,0,1-1.75,1.22,7.9,7.9,0,0,1-2.73.43A11,11,0,0,1,108.51,165.12Z" transform="translate(-81.21 -112.86)"/><path class="cls-1" d="M128.21,160.79h-8.14a2.6,2.6,0,0,0,1,1.58,3.51,3.51,0,0,0,2,.58,4.27,4.27,0,0,0,1.49-.25,3.56,3.56,0,0,0,1.21-.79l1.66,1.8a5.57,5.57,0,0,1-4.44,1.74,7.1,7.1,0,0,1-3.22-.71,5.29,5.29,0,0,1-2.16-2,5.79,5.79,0,0,1,0-5.72,5.27,5.27,0,0,1,2.06-2,6.42,6.42,0,0,1,5.79,0,4.93,4.93,0,0,1,2,2,5.76,5.76,0,0,1,.73,2.95S128.25,160.27,128.21,160.79Zm-7.3-3.46A2.55,2.55,0,0,0,120,159h5.3a2.58,2.58,0,0,0-.88-1.63,2.91,2.91,0,0,0-3.54,0Z" transform="translate(-81.21 -112.86)"/><path class="cls-1" d="M134.44,154.77a5.59,5.59,0,0,1,2.19-.4v2.88c-.34,0-.58,0-.7,0a2.87,2.87,0,0,0-2.1.75,3.06,3.06,0,0,0-.76,2.25v5.08H130V154.53h3V156A3.41,3.41,0,0,1,134.44,154.77Z" transform="translate(-81.21 -112.86)"/><path class="cls-1" d="M149.15,154.53l-4.54,10.76h-3.22l-4.52-10.76h3.22l3,7.31,3.08-7.31Z" transform="translate(-81.21 -112.86)"/><path class="cls-1" d="M160.21,160.79h-8.14a2.6,2.6,0,0,0,1,1.58,3.51,3.51,0,0,0,2,.58,4.27,4.27,0,0,0,1.49-.25,3.56,3.56,0,0,0,1.21-.79l1.66,1.8a5.57,5.57,0,0,1-4.44,1.74,7.1,7.1,0,0,1-3.22-.71,5.29,5.29,0,0,1-2.16-2,5.79,5.79,0,0,1,0-5.72,5.27,5.27,0,0,1,2.06-2,6.42,6.42,0,0,1,5.79,0,5.05,5.05,0,0,1,2,2,5.76,5.76,0,0,1,.73,2.95S160.25,160.27,160.21,160.79Zm-7.3-3.46A2.55,2.55,0,0,0,152,159h5.3a2.58,2.58,0,0,0-.88-1.63,2.91,2.91,0,0,0-3.54,0Z" transform="translate(-81.21 -112.86)"/><path class="cls-1" d="M163.19,153.92h-4.48v-2.63h12.2v2.63h-4.48v11.37h-3.24Z" transform="translate(-81.21 -112.86)"/><path class="cls-1" d="M173,164.74a5.35,5.35,0,0,1-2.11-2,5.78,5.78,0,0,1,0-5.73,5.32,5.32,0,0,1,2.11-2,6.38,6.38,0,0,1,3.05-.71,6.29,6.29,0,0,1,3,.71,5.23,5.23,0,0,1,2.1,2,5.78,5.78,0,0,1,0,5.73,5.25,5.25,0,0,1-2.1,2,6.4,6.4,0,0,1-3,.71A6.5,6.5,0,0,1,173,164.74Zm5-2.66a3.44,3.44,0,0,0,0-4.34,2.6,2.6,0,0,0-2-.82,2.64,2.64,0,0,0-2,.82,3.41,3.41,0,0,0,0,4.34,2.62,2.62,0,0,0,2,.8A2.59,2.59,0,0,0,178,162.08Z" transform="translate(-81.21 -112.86)"/><path class="cls-1" d="M194.47,154.53v10.76h-3V164a4.08,4.08,0,0,1-1.48,1.08,4.75,4.75,0,0,1-1.86.37,4.61,4.61,0,0,1-3.36-1.22,4.9,4.9,0,0,1-1.24-3.62v-6.08h3.12v5.62c0,1.73.73,2.6,2.18,2.6a2.36,2.36,0,0,0,1.8-.73,3.08,3.08,0,0,0,.68-2.18v-5.31Z" transform="translate(-81.21 -112.86)"/><path class="cls-1" d="M203.91,164.77a3.37,3.37,0,0,1-1.13.51,5.86,5.86,0,0,1-1.41.17,4.16,4.16,0,0,1-3-1,3.74,3.74,0,0,1-1.05-2.88v-4.41h-1.66v-2.4h1.66v-2.62h3.12v2.62h2.68v2.4h-2.68v4.37a1.46,1.46,0,0,0,.35,1.05,1.3,1.3,0,0,0,1,.37,2,2,0,0,0,1.26-.39Z" transform="translate(-81.21 -112.86)"/><polygon class="cls-1" points="78.42 31.61 69.96 31.61 63.86 25.32 58.62 25.32 58.62 19.26 66.43 19.26 78.42 31.61"/><polygon class="cls-1" points="55 16.21 48.94 19.29 48.94 6.07 41.32 6.07 41.32 0 55 0 55 16.21"/><path class="cls-1" d="M136.22,150.65h-6.07V138.44l18.66-12.29a3.93,3.93,0,0,0-2.16-7.22h-7.38v-6.07h7.38a10,10,0,0,1,5.5,18.36l-15.93,10.49Z" transform="translate(-81.21 -112.86)"/></svg>